<svg width="404" height="533" viewBox="0 0 404 533" fill="none" xmlns="http://www.w3.org/2000/svg">
<g filter="url(#filter0_d_43_33)">
<rect x="100" y="100" width="204" height="333" rx="25" fill="#171129"/>
</g>
<rect x="144" y="206" width="116" height="48" rx="6" fill="#3B82F6"/>
<path d="M167.435 238V223.455H172.889C174.007 223.455 174.944 223.663 175.702 224.08C176.464 224.496 177.039 225.069 177.428 225.798C177.821 226.523 178.017 227.347 178.017 228.27C178.017 229.203 177.821 230.031 177.428 230.756C177.035 231.48 176.455 232.051 175.688 232.467C174.92 232.879 173.976 233.085 172.854 233.085H169.239V230.919H172.499C173.152 230.919 173.687 230.805 174.104 230.578C174.52 230.351 174.828 230.038 175.027 229.641C175.231 229.243 175.332 228.786 175.332 228.27C175.332 227.754 175.231 227.299 175.027 226.906C174.828 226.513 174.518 226.208 174.097 225.99C173.68 225.768 173.143 225.656 172.484 225.656H170.07V238H167.435ZM180.192 238V227.091H182.685V228.909H182.799C182.998 228.279 183.338 227.794 183.821 227.453C184.309 227.107 184.865 226.935 185.49 226.935C185.632 226.935 185.791 226.942 185.966 226.956C186.146 226.965 186.295 226.982 186.414 227.006V229.371C186.305 229.333 186.132 229.3 185.895 229.271C185.663 229.238 185.438 229.222 185.221 229.222C184.752 229.222 184.33 229.323 183.956 229.527C183.587 229.726 183.296 230.003 183.083 230.358C182.87 230.713 182.763 231.123 182.763 231.587V238H180.192ZM188.122 238V227.091H190.693V238H188.122ZM189.414 225.543C189.007 225.543 188.657 225.408 188.363 225.138C188.07 224.863 187.923 224.534 187.923 224.151C187.923 223.762 188.07 223.433 188.363 223.163C188.657 222.889 189.007 222.751 189.414 222.751C189.826 222.751 190.177 222.889 190.466 223.163C190.759 223.433 190.906 223.762 190.906 224.151C190.906 224.534 190.759 224.863 190.466 225.138C190.177 225.408 189.826 225.543 189.414 225.543ZM193.337 238V227.091H195.794V228.945H195.922C196.149 228.32 196.526 227.832 197.051 227.482C197.577 227.126 198.204 226.949 198.933 226.949C199.672 226.949 200.295 227.129 200.801 227.489C201.313 227.844 201.672 228.329 201.881 228.945H201.994C202.236 228.339 202.643 227.856 203.216 227.496C203.794 227.131 204.478 226.949 205.268 226.949C206.272 226.949 207.091 227.266 207.726 227.901C208.36 228.535 208.678 229.461 208.678 230.678V238H206.099V231.075C206.099 230.398 205.92 229.903 205.56 229.591C205.2 229.274 204.759 229.115 204.239 229.115C203.618 229.115 203.133 229.309 202.783 229.697C202.437 230.081 202.264 230.58 202.264 231.196V238H199.743V230.969C199.743 230.405 199.572 229.955 199.232 229.619C198.895 229.283 198.455 229.115 197.911 229.115C197.541 229.115 197.205 229.21 196.902 229.399C196.599 229.584 196.357 229.847 196.178 230.188C195.998 230.524 195.908 230.917 195.908 231.366V238H193.337ZM214.425 238.22C213.734 238.22 213.111 238.097 212.557 237.851C212.008 237.6 211.572 237.231 211.25 236.743C210.933 236.255 210.775 235.654 210.775 234.939C210.775 234.323 210.888 233.814 211.115 233.412C211.343 233.009 211.653 232.688 212.046 232.446C212.439 232.205 212.882 232.022 213.374 231.899C213.871 231.771 214.385 231.679 214.915 231.622C215.554 231.556 216.073 231.497 216.471 231.445C216.868 231.388 217.157 231.303 217.337 231.189C217.522 231.071 217.614 230.888 217.614 230.642V230.599C217.614 230.064 217.455 229.65 217.138 229.357C216.821 229.063 216.364 228.916 215.767 228.916C215.138 228.916 214.638 229.054 214.269 229.328C213.904 229.603 213.658 229.927 213.53 230.301L211.13 229.96C211.319 229.297 211.632 228.743 212.067 228.298C212.503 227.848 213.035 227.512 213.665 227.29C214.295 227.062 214.991 226.949 215.753 226.949C216.279 226.949 216.802 227.01 217.323 227.134C217.844 227.257 218.319 227.46 218.75 227.744C219.181 228.024 219.527 228.405 219.787 228.888C220.052 229.371 220.185 229.974 220.185 230.699V238H217.713V236.501H217.628C217.472 236.804 217.252 237.089 216.968 237.354C216.688 237.614 216.336 237.825 215.909 237.986C215.488 238.142 214.993 238.22 214.425 238.22ZM215.093 236.331C215.609 236.331 216.056 236.229 216.435 236.026C216.814 235.817 217.105 235.543 217.309 235.202C217.517 234.861 217.621 234.489 217.621 234.087V232.801C217.541 232.867 217.403 232.929 217.209 232.986C217.02 233.043 216.807 233.092 216.57 233.135C216.333 233.178 216.099 233.215 215.867 233.249C215.635 233.282 215.434 233.31 215.263 233.334C214.88 233.386 214.536 233.471 214.233 233.589C213.93 233.708 213.691 233.874 213.516 234.087C213.341 234.295 213.253 234.565 213.253 234.896C213.253 235.37 213.426 235.727 213.772 235.969C214.117 236.21 214.558 236.331 215.093 236.331ZM222.77 238V227.091H225.263V228.909H225.377C225.576 228.279 225.917 227.794 226.4 227.453C226.887 227.107 227.444 226.935 228.069 226.935C228.211 226.935 228.369 226.942 228.544 226.956C228.724 226.965 228.873 226.982 228.992 227.006V229.371C228.883 229.333 228.71 229.3 228.473 229.271C228.241 229.238 228.016 229.222 227.799 229.222C227.33 229.222 226.908 229.323 226.534 229.527C226.165 229.726 225.874 230.003 225.661 230.358C225.448 230.713 225.341 231.123 225.341 231.587V238H222.77ZM232.63 242.091C232.28 242.091 231.955 242.063 231.657 242.006C231.363 241.954 231.129 241.892 230.954 241.821L231.55 239.818C231.924 239.927 232.258 239.979 232.552 239.974C232.845 239.97 233.103 239.877 233.326 239.697C233.553 239.522 233.745 239.229 233.901 238.817L234.121 238.227L230.165 227.091H232.893L235.407 235.33H235.521L238.042 227.091H240.776L236.408 239.321C236.205 239.899 235.935 240.393 235.599 240.805C235.263 241.222 234.851 241.539 234.363 241.757C233.88 241.98 233.302 242.091 232.63 242.091Z" fill="black"/>
<rect x="136" y="280" width="134" height="48" rx="6" fill="#94A3B8"/>
<path d="M160.339 300.453C160.273 299.833 159.994 299.35 159.501 299.004C159.014 298.659 158.379 298.486 157.598 298.486C157.049 298.486 156.578 298.569 156.185 298.734C155.792 298.9 155.491 299.125 155.283 299.409C155.074 299.693 154.968 300.018 154.963 300.382C154.963 300.685 155.032 300.948 155.169 301.17C155.311 301.393 155.503 301.582 155.744 301.739C155.986 301.89 156.253 302.018 156.547 302.122C156.84 302.226 157.136 302.314 157.435 302.385L158.798 302.726C159.348 302.854 159.875 303.027 160.382 303.244C160.893 303.462 161.35 303.737 161.753 304.068C162.16 304.4 162.482 304.8 162.719 305.268C162.955 305.737 163.074 306.286 163.074 306.916C163.074 307.768 162.856 308.519 162.42 309.168C161.985 309.812 161.355 310.316 160.531 310.68C159.712 311.04 158.72 311.22 157.555 311.22C156.424 311.22 155.441 311.045 154.608 310.695C153.779 310.344 153.131 309.833 152.662 309.161C152.198 308.488 151.947 307.669 151.909 306.703H154.501C154.539 307.21 154.696 307.631 154.97 307.967C155.245 308.304 155.602 308.554 156.043 308.72C156.488 308.886 156.985 308.969 157.534 308.969C158.107 308.969 158.609 308.884 159.04 308.713C159.475 308.538 159.816 308.296 160.062 307.989C160.309 307.676 160.434 307.312 160.439 306.895C160.434 306.516 160.323 306.204 160.105 305.957C159.887 305.706 159.582 305.498 159.189 305.332C158.801 305.162 158.346 305.01 157.825 304.878L156.17 304.452C154.973 304.144 154.026 303.678 153.33 303.053C152.638 302.423 152.293 301.587 152.293 300.545C152.293 299.688 152.525 298.938 152.989 298.294C153.457 297.65 154.094 297.151 154.899 296.795C155.704 296.436 156.616 296.256 157.634 296.256C158.666 296.256 159.57 296.436 160.347 296.795C161.128 297.151 161.741 297.645 162.186 298.28C162.631 298.91 162.861 299.634 162.875 300.453H160.339ZM170.139 311.213C169.045 311.213 168.1 310.986 167.305 310.531C166.514 310.072 165.906 309.423 165.48 308.585C165.054 307.742 164.841 306.75 164.841 305.609C164.841 304.487 165.054 303.502 165.48 302.655C165.911 301.803 166.512 301.14 167.284 300.666C168.056 300.188 168.962 299.949 170.004 299.949C170.676 299.949 171.311 300.058 171.907 300.276C172.509 300.489 173.039 300.82 173.498 301.27C173.962 301.72 174.327 302.293 174.592 302.989C174.857 303.68 174.99 304.504 174.99 305.46V306.249H166.048V304.516H172.525C172.52 304.023 172.414 303.585 172.206 303.202C171.997 302.813 171.706 302.508 171.332 302.286C170.963 302.063 170.532 301.952 170.039 301.952C169.514 301.952 169.052 302.08 168.654 302.335C168.257 302.586 167.947 302.918 167.724 303.33C167.506 303.737 167.395 304.184 167.39 304.672V306.185C167.39 306.819 167.506 307.364 167.738 307.818C167.97 308.268 168.295 308.614 168.711 308.855C169.128 309.092 169.616 309.21 170.174 309.21C170.548 309.21 170.887 309.158 171.19 309.054C171.493 308.945 171.756 308.786 171.978 308.578C172.201 308.37 172.369 308.112 172.483 307.804L174.883 308.074C174.732 308.708 174.443 309.262 174.017 309.736C173.595 310.205 173.056 310.569 172.397 310.83C171.739 311.085 170.986 311.213 170.139 311.213ZM181.923 311.213C180.834 311.213 179.899 310.974 179.118 310.496C178.341 310.018 177.742 309.357 177.321 308.514C176.904 307.667 176.696 306.691 176.696 305.588C176.696 304.48 176.909 303.502 177.335 302.655C177.761 301.803 178.363 301.14 179.139 300.666C179.92 300.188 180.844 299.949 181.909 299.949C182.795 299.949 183.578 300.112 184.26 300.439C184.946 300.761 185.493 301.218 185.901 301.81C186.308 302.397 186.54 303.083 186.597 303.869H184.139C184.04 303.344 183.803 302.906 183.429 302.555C183.06 302.2 182.565 302.023 181.945 302.023C181.419 302.023 180.957 302.165 180.56 302.449C180.162 302.728 179.852 303.131 179.629 303.656C179.411 304.182 179.303 304.812 179.303 305.545C179.303 306.289 179.411 306.928 179.629 307.463C179.847 307.993 180.152 308.403 180.545 308.692C180.943 308.976 181.41 309.118 181.945 309.118C182.323 309.118 182.662 309.047 182.96 308.905C183.263 308.758 183.517 308.547 183.72 308.273C183.924 307.998 184.063 307.664 184.139 307.271H186.597C186.535 308.043 186.308 308.727 185.915 309.324C185.522 309.916 184.987 310.38 184.31 310.716C183.633 311.047 182.837 311.213 181.923 311.213ZM193.466 311.213C192.401 311.213 191.478 310.979 190.696 310.51C189.915 310.041 189.309 309.385 188.878 308.543C188.452 307.7 188.239 306.715 188.239 305.588C188.239 304.461 188.452 303.474 188.878 302.626C189.309 301.779 189.915 301.121 190.696 300.652C191.478 300.183 192.401 299.949 193.466 299.949C194.532 299.949 195.455 300.183 196.236 300.652C197.017 301.121 197.621 301.779 198.047 302.626C198.478 303.474 198.694 304.461 198.694 305.588C198.694 306.715 198.478 307.7 198.047 308.543C197.621 309.385 197.017 310.041 196.236 310.51C195.455 310.979 194.532 311.213 193.466 311.213ZM193.48 309.153C194.058 309.153 194.541 308.995 194.929 308.678C195.318 308.356 195.606 307.925 195.796 307.385C195.99 306.845 196.087 306.244 196.087 305.581C196.087 304.913 195.99 304.31 195.796 303.77C195.606 303.225 195.318 302.792 194.929 302.47C194.541 302.148 194.058 301.987 193.48 301.987C192.889 301.987 192.396 302.148 192.003 302.47C191.615 302.792 191.324 303.225 191.13 303.77C190.94 304.31 190.846 304.913 190.846 305.581C190.846 306.244 190.94 306.845 191.13 307.385C191.324 307.925 191.615 308.356 192.003 308.678C192.396 308.995 192.889 309.153 193.48 309.153ZM203.447 304.608V311H200.876V300.091H203.333V301.945H203.461C203.712 301.334 204.112 300.848 204.661 300.489C205.215 300.129 205.899 299.949 206.714 299.949C207.467 299.949 208.122 300.11 208.681 300.432C209.245 300.754 209.68 301.22 209.988 301.831C210.3 302.442 210.454 303.183 210.45 304.054V311H207.879V304.452C207.879 303.723 207.689 303.152 207.31 302.74C206.936 302.328 206.418 302.122 205.755 302.122C205.305 302.122 204.905 302.222 204.555 302.42C204.209 302.615 203.937 302.896 203.738 303.266C203.544 303.635 203.447 304.082 203.447 304.608ZM217.112 311.192C216.254 311.192 215.487 310.972 214.81 310.531C214.133 310.091 213.598 309.452 213.205 308.614C212.812 307.776 212.616 306.758 212.616 305.56C212.616 304.348 212.815 303.325 213.212 302.491C213.615 301.653 214.157 301.021 214.839 300.595C215.521 300.164 216.281 299.949 217.119 299.949C217.758 299.949 218.283 300.058 218.695 300.276C219.107 300.489 219.434 300.747 219.675 301.05C219.917 301.348 220.104 301.63 220.237 301.895H220.343V296.455H222.921V311H220.393V309.281H220.237C220.104 309.546 219.912 309.828 219.661 310.126C219.41 310.42 219.079 310.671 218.667 310.879C218.255 311.088 217.737 311.192 217.112 311.192ZM217.829 309.082C218.373 309.082 218.837 308.936 219.221 308.642C219.604 308.344 219.896 307.929 220.094 307.399C220.293 306.869 220.393 306.251 220.393 305.545C220.393 304.84 220.293 304.227 220.094 303.706C219.9 303.185 219.612 302.78 219.228 302.491C218.849 302.203 218.383 302.058 217.829 302.058C217.256 302.058 216.778 302.207 216.394 302.506C216.011 302.804 215.722 303.216 215.528 303.741C215.334 304.267 215.237 304.868 215.237 305.545C215.237 306.227 215.334 306.836 215.528 307.371C215.727 307.901 216.018 308.32 216.401 308.628C216.79 308.931 217.265 309.082 217.829 309.082ZM228.8 311.22C228.109 311.22 227.486 311.097 226.932 310.851C226.383 310.6 225.947 310.231 225.625 309.743C225.308 309.255 225.15 308.654 225.15 307.939C225.15 307.323 225.263 306.814 225.49 306.412C225.718 306.009 226.028 305.688 226.421 305.446C226.814 305.205 227.257 305.022 227.749 304.899C228.246 304.771 228.76 304.679 229.29 304.622C229.929 304.556 230.448 304.497 230.846 304.445C231.243 304.388 231.532 304.303 231.712 304.189C231.897 304.071 231.989 303.888 231.989 303.642V303.599C231.989 303.064 231.83 302.65 231.513 302.357C231.196 302.063 230.739 301.916 230.142 301.916C229.513 301.916 229.013 302.054 228.644 302.328C228.279 302.603 228.033 302.927 227.905 303.301L225.505 302.96C225.694 302.297 226.007 301.743 226.442 301.298C226.878 300.848 227.41 300.512 228.04 300.29C228.67 300.062 229.366 299.949 230.128 299.949C230.654 299.949 231.177 300.01 231.698 300.134C232.219 300.257 232.694 300.46 233.125 300.744C233.556 301.024 233.902 301.405 234.162 301.888C234.427 302.371 234.56 302.974 234.56 303.699V311H232.088V309.501H232.003C231.847 309.804 231.627 310.089 231.343 310.354C231.063 310.614 230.711 310.825 230.284 310.986C229.863 311.142 229.368 311.22 228.8 311.22ZM229.468 309.331C229.984 309.331 230.431 309.229 230.81 309.026C231.189 308.817 231.48 308.543 231.684 308.202C231.892 307.861 231.996 307.489 231.996 307.087V305.801C231.916 305.867 231.778 305.929 231.584 305.986C231.395 306.043 231.182 306.092 230.945 306.135C230.708 306.178 230.474 306.215 230.242 306.249C230.01 306.282 229.809 306.31 229.638 306.334C229.255 306.386 228.911 306.471 228.608 306.589C228.305 306.708 228.066 306.874 227.891 307.087C227.716 307.295 227.628 307.565 227.628 307.896C227.628 308.37 227.801 308.727 228.147 308.969C228.492 309.21 228.933 309.331 229.468 309.331ZM237.145 311V300.091H239.638V301.909H239.752C239.951 301.279 240.292 300.794 240.775 300.453C241.262 300.107 241.819 299.935 242.444 299.935C242.586 299.935 242.744 299.942 242.919 299.956C243.099 299.965 243.248 299.982 243.367 300.006V302.371C243.258 302.333 243.085 302.3 242.848 302.271C242.616 302.238 242.391 302.222 242.174 302.222C241.705 302.222 241.283 302.323 240.909 302.527C240.54 302.726 240.249 303.003 240.036 303.358C239.823 303.713 239.716 304.123 239.716 304.587V311H237.145ZM247.005 315.091C246.655 315.091 246.33 315.063 246.032 315.006C245.738 314.954 245.504 314.892 245.329 314.821L245.925 312.818C246.299 312.927 246.633 312.979 246.927 312.974C247.22 312.97 247.478 312.877 247.701 312.697C247.928 312.522 248.12 312.229 248.276 311.817L248.496 311.227L244.54 300.091H247.268L249.782 308.33H249.896L252.417 300.091H255.151L250.783 312.321C250.58 312.899 250.31 313.393 249.974 313.805C249.638 314.222 249.226 314.539 248.738 314.757C248.255 314.98 247.677 315.091 247.005 315.091Z" fill="black"/>
<rect x="143" y="352" width="116" height="48" rx="6" fill="#3B82F6"/>
<path d="M210 376C210 374.105 209.402 372.259 208.292 370.724C207.181 369.189 205.614 368.044 203.815 367.451C202.015 366.859 200.075 366.849 198.269 367.424C196.464 367.999 194.886 369.129 193.761 370.653C192.635 372.177 192.019 374.017 192 375.912C191.982 377.806 192.562 379.658 193.657 381.204C194.753 382.75 196.308 383.91 198.102 384.521C199.895 385.131 201.836 385.159 203.647 384.602L201 376H210Z" fill="white"/>
<circle cx="201" cy="376" r="7" fill="#3B82F6"/>
<rect x="146" y="131" width="110" height="49" rx="24.5" fill="#4C24DA"/>
<path d="M175.98 148.44C177.46 148.44 178.627 148.74 179.48 149.34C180.347 149.94 180.78 150.86 180.78 152.1C180.78 152.927 180.587 153.633 180.2 154.22C179.827 154.793 179.3 155.24 178.62 155.56C177.94 155.867 177.147 156.033 176.24 156.06L175.88 154.82C176.96 154.833 177.92 155.007 178.76 155.34C179.6 155.66 180.267 156.12 180.76 156.72C181.253 157.307 181.5 158.007 181.5 158.82C181.5 159.58 181.36 160.227 181.08 160.76C180.8 161.28 180.427 161.707 179.96 162.04C179.493 162.373 178.967 162.62 178.38 162.78C177.793 162.927 177.18 163 176.54 163H172V148.44H175.98ZM176.36 154.64C177.053 154.64 177.56 154.44 177.88 154.04C178.213 153.627 178.38 153.147 178.38 152.6C178.38 151.933 178.173 151.447 177.76 151.14C177.347 150.833 176.787 150.68 176.08 150.68H174.34V154.64H176.36ZM176.44 160.84C176.933 160.84 177.38 160.773 177.78 160.64C178.18 160.493 178.493 160.273 178.72 159.98C178.96 159.673 179.08 159.293 179.08 158.84C179.08 158.333 178.94 157.94 178.66 157.66C178.393 157.38 178.047 157.18 177.62 157.06C177.193 156.94 176.747 156.88 176.28 156.88H174.34V160.84H176.44ZM186.858 163.36C186.084 163.36 185.444 163.127 184.938 162.66C184.431 162.18 184.164 161.567 184.138 160.82V154.54H186.378V160.02C186.404 160.433 186.524 160.773 186.738 161.04C186.951 161.307 187.291 161.44 187.758 161.44C188.198 161.44 188.591 161.307 188.938 161.04C189.284 160.76 189.551 160.38 189.738 159.9C189.938 159.42 190.038 158.88 190.038 158.28V154.54H192.278V163H190.258L190.078 161.14L190.138 161.44C189.964 161.8 189.718 162.133 189.398 162.44C189.078 162.733 188.698 162.96 188.258 163.12C187.831 163.28 187.364 163.36 186.858 163.36ZM196.168 150.82H198.428V154.54H200.628V156.3H198.428V163H196.168V156.3H194.728V154.54H196.168V150.82ZM203.629 150.82H205.889V154.54H208.089V156.3H205.889V163H203.629V156.3H202.189V154.54H203.629V150.82ZM209.59 158.68C209.59 157.827 209.79 157.06 210.19 156.38C210.59 155.687 211.15 155.147 211.87 154.76C212.603 154.36 213.43 154.16 214.35 154.16C215.297 154.16 216.117 154.36 216.81 154.76C217.517 155.147 218.063 155.687 218.45 156.38C218.837 157.06 219.03 157.827 219.03 158.68C219.03 159.533 218.837 160.307 218.45 161C218.063 161.68 217.517 162.22 216.81 162.62C216.117 163.02 215.29 163.22 214.33 163.22C213.423 163.22 212.61 163.04 211.89 162.68C211.17 162.307 210.603 161.78 210.19 161.1C209.79 160.42 209.59 159.613 209.59 158.68ZM211.85 158.7C211.85 159.193 211.957 159.647 212.17 160.06C212.383 160.46 212.677 160.78 213.05 161.02C213.423 161.26 213.837 161.38 214.29 161.38C214.783 161.38 215.21 161.26 215.57 161.02C215.943 160.78 216.23 160.46 216.43 160.06C216.643 159.647 216.75 159.193 216.75 158.7C216.75 158.193 216.643 157.74 216.43 157.34C216.23 156.927 215.943 156.6 215.57 156.36C215.21 156.12 214.783 156 214.29 156C213.823 156 213.403 156.127 213.03 156.38C212.67 156.62 212.383 156.94 212.17 157.34C211.957 157.74 211.85 158.193 211.85 158.7ZM223.404 154.54L223.604 156.36L223.524 156.12C223.817 155.533 224.25 155.067 224.824 154.72C225.41 154.36 226.104 154.18 226.904 154.18C227.704 154.18 228.364 154.413 228.884 154.88C229.404 155.347 229.67 155.96 229.684 156.72V163H227.444V157.52C227.43 157.093 227.31 156.753 227.084 156.5C226.857 156.233 226.497 156.093 226.004 156.08C225.55 156.08 225.144 156.22 224.784 156.5C224.424 156.767 224.137 157.14 223.924 157.62C223.724 158.087 223.624 158.627 223.624 159.24V163H221.384V154.54H223.404Z" fill="white"/>
<defs>
<filter id="filter0_d_43_33" x="0" y="0" width="404" height="533" filterUnits="userSpaceOnUse" color-interpolation-filters="sRGB">
<feFlood flood-opacity="0" result="BackgroundImageFix"/>
<feColorMatrix in="SourceAlpha" type="matrix" values="0 0 0 0 0 0 0 0 0 0 0 0 0 0 0 0 0 0 127 0" result="hardAlpha"/>
<feOffset/>
<feGaussianBlur stdDeviation="50"/>
<feComposite in2="hardAlpha" operator="out"/>
<feColorMatrix type="matrix" values="0 0 0 0 0.444488 0 0 0 0 0.345972 0 0 0 0 0.883333 0 0 0 0.75 0"/>
<feBlend mode="normal" in2="BackgroundImageFix" result="effect1_dropShadow_43_33"/>
<feBlend mode="normal" in="SourceGraphic" in2="effect1_dropShadow_43_33" result="shape"/>
</filter>
</defs>
</svg>
